<svg xmlns="http://www.w3.org/2000/svg" viewBox="0 0 900 720">
  <defs>
    <linearGradient id="steel" x1="0" x2="1" y1="0" y2="1">
      <stop offset="0" stop-color="#ffffff"/>
      <stop offset=".42" stop-color="#cfd4dc"/>
      <stop offset="1" stop-color="#747b86"/>
    </linearGradient>
    <linearGradient id="gold" x1="0" x2="1">
      <stop offset="0" stop-color="#f0c46f"/>
      <stop offset="1" stop-color="#d7a14a"/>
    </linearGradient>
    <filter id="shadow" x="-20%" y="-20%" width="140%" height="140%">
      <feDropShadow dx="0" dy="34" stdDeviation="32" flood-color="#000" flood-opacity=".38"/>
    </filter>
  </defs>
  <rect x="118" y="94" width="560" height="486" rx="58" fill="url(#steel)" filter="url(#shadow)"/>
  <rect x="158" y="144" width="480" height="108" rx="32" fill="#111827"/>
  <circle cx="536" cy="198" r="34" fill="url(#gold)"/>
  <rect x="192" y="304" width="412" height="206" rx="32" fill="#161b24"/>
  <ellipse cx="398" cy="405" rx="154" ry="42" fill="#fff"/>
  <path d="M288 386c42-73 133-104 220-68 39 16 71 42 92 78-73 36-154 46-240 29-34-7-58-20-72-39Z" fill="#d7a14a"/>
  <circle cx="456" cy="370" r="25" fill="#fff"/>
  <path d="M618 360c68-28 122 2 132 58 12 69-61 116-132 82" fill="none" stroke="#d7a14a" stroke-width="30" stroke-linecap="round"/>
  <path d="M226 638c120 36 306 36 428 0" fill="none" stroke="#fff" stroke-opacity=".28" stroke-width="26" stroke-linecap="round"/>
</svg>
