<svg xmlns="http://www.w3.org/2000/svg" viewBox="0 0 1200 750">
  <defs>
    <linearGradient id="bg" x1="0" x2="1" y1="0" y2="1">
      <stop offset="0" stop-color="#f6efe5"/>
      <stop offset="0.48" stop-color="#d7a14a"/>
      <stop offset="1" stop-color="#5f8a74"/>
    </linearGradient>
    <filter id="shadow" x="-20%" y="-20%" width="140%" height="140%">
      <feDropShadow dx="0" dy="28" stdDeviation="26" flood-color="#111827" flood-opacity=".24"/>
    </filter>
  </defs>
  <rect width="1200" height="750" fill="url(#bg)"/>
  <circle cx="960" cy="130" r="180" fill="#fff" opacity=".18"/>
  <circle cx="180" cy="670" r="230" fill="#111827" opacity=".12"/>
  <g filter="url(#shadow)">
    <ellipse cx="600" cy="450" rx="330" ry="92" fill="#fff" opacity=".94"/>
    <ellipse cx="600" cy="412" rx="250" ry="62" fill="#f8f8f8"/>
    <path d="M395 384c67-96 184-139 306-93 60 23 103 62 128 110-111 48-230 58-356 24-35-10-61-23-78-41Z" fill="#111827"/>
    <path d="M467 335c57-42 130-54 205-27 39 14 70 37 94 70-84 30-171 33-260 6-26-8-39-24-39-49Z" fill="#d7a14a"/>
    <circle cx="690" cy="352" r="34" fill="#fff"/>
  </g>
</svg>
