<svg xmlns="http://www.w3.org/2000/svg" viewBox="0 0 192 192" role="img" aria-label="Ninja Premium Cookbook App Icon">
  <defs>
    <linearGradient id="gold" x1="42" y1="32" x2="150" y2="160" gradientUnits="userSpaceOnUse">
      <stop offset="0" stop-color="#F3D08A"/>
      <stop offset="0.48" stop-color="#D7A14A"/>
      <stop offset="1" stop-color="#A96F22"/>
    </linearGradient>
    <linearGradient id="cream" x1="55" y1="88" x2="135" y2="142" gradientUnits="userSpaceOnUse">
      <stop offset="0" stop-color="#FFFFFF"/>
      <stop offset="1" stop-color="#EEE8DC"/>
    </linearGradient>
  </defs>
  <rect width="192" height="192" rx="44" fill="#111827"/>
  <path d="M51 50c0-7 6-13 13-13h64c7 0 13 6 13 13v16H51V50Z" fill="url(#gold)"/>
  <path d="M43 69h106c9 0 16 7 16 16v31c0 28-23 51-51 51H78c-28 0-51-23-51-51V85c0-9 7-16 16-16Z" fill="url(#gold)"/>
  <path d="M47 90h98v24c0 20-16 36-36 36H83c-20 0-36-16-36-36V90Z" fill="#172033"/>
  <path d="M64 97h64c6 0 10 4 10 10v5c0 15-12 27-27 27H81c-15 0-27-12-27-27v-5c0-6 4-10 10-10Z" fill="url(#cream)"/>
  <path d="M78 113c11-7 26-7 38 0" fill="none" stroke="#D7A14A" stroke-width="8" stroke-linecap="round"/>
  <path d="M73 38c-5-8-3-16 4-22M96 36c-6-8-6-17 0-25M119 38c7-7 8-15 4-23" fill="none" stroke="#FFFFFF" stroke-width="7" stroke-linecap="round"/>
  <path d="M139 34l4 10 10 4-10 4-4 10-4-10-10-4 10-4 4-10Z" fill="#FFFFFF"/>
</svg>
